<svg width="25" height="27" viewBox="0 0 25 27" fill="none" xmlns="http://www.w3.org/2000/svg">
<ellipse cx="12.2337" cy="13.5" rx="12.1558" ry="13.5" fill="black"/>
<path fill-rule="evenodd" clip-rule="evenodd" d="M5.48047 13.2498C5.48036 15.7694 6.74391 18.0793 8.75742 19.2405C10.771 20.4017 13.1992 20.2207 15.0549 18.7712L17.6363 19.0354V13.2498C17.6363 9.522 14.9151 6.5 11.5584 6.5C8.20165 6.5 5.48047 9.522 5.48047 13.2498Z" fill="black" stroke="white" stroke-linecap="round" stroke-linejoin="round"/>
<path d="M8.43188 14.75C8.43188 14.5743 8.50471 14.4336 8.60721 14.3468V15.1532C8.50471 15.0664 8.43188 14.9257 8.43188 14.75ZM9.10721 15.25V14.25H12.2089V15.25H9.10721ZM12.8843 14.75C12.8843 14.9257 12.8114 15.0664 12.7089 15.1532V14.3468C12.8114 14.4336 12.8843 14.5743 12.8843 14.75ZM8.43188 11.75C8.43188 11.5743 8.50471 11.4336 8.60721 11.3468V12.1532C8.50471 12.0664 8.43188 11.9257 8.43188 11.75ZM9.10721 11.25H14.0098V12.25H9.10721V11.25ZM14.6851 11.75C14.6851 11.9257 14.6123 12.0664 14.5098 12.1532V11.3468C14.6123 11.4336 14.6851 11.5743 14.6851 11.75Z" fill="black" stroke="white" stroke-width="0.5"/>
</svg>
