<svg width="25" height="27" viewBox="0 0 25 27" fill="none" xmlns="http://www.w3.org/2000/svg">
<ellipse cx="12.1558" cy="13.5" rx="12.1558" ry="13.5" fill="black"/>
<path d="M14.3319 7.875C14.3319 6.75 13.2198 6 12.3509 6C11.7461 6 11.6989 6.459 11.6058 7.365L11.6043 7.3793C11.5634 7.77407 11.5137 8.25228 11.4055 8.8125C11.1158 10.314 10.1149 12.2325 9.15739 12.8062V17.25C9.15439 18.9375 9.71716 19.5 12.1558 19.5H14.9869C16.6183 19.5 17.0145 18.4272 17.1618 18.0281L17.1622 18.027L17.172 18C17.2575 17.7705 17.4406 17.5898 17.6507 17.385L17.657 17.3788C17.8881 17.1508 18.1507 16.8917 18.3463 16.5C18.5797 16.0328 18.5489 15.6172 18.5211 15.2475C18.5039 15.0232 18.4881 14.8162 18.5339 14.625C18.5819 14.4225 18.6435 14.2688 18.7027 14.1217C18.81 13.8548 18.9091 13.6073 18.9091 13.125C18.9091 12 18.3478 11.2515 17.172 11.2515H14.0317C14.0317 11.2515 14.3319 9 14.3319 7.875ZM6.52813 12C6.22962 12 5.94333 12.1185 5.73225 12.3295C5.52117 12.5405 5.40259 12.8266 5.40259 13.125V18.375C5.40259 18.6734 5.52117 18.9595 5.73225 19.1705C5.94333 19.3815 6.22962 19.5 6.52813 19.5C6.82664 19.5 7.11293 19.3815 7.32401 19.1705C7.53509 18.9595 7.65367 18.6734 7.65367 18.375V13.125C7.65367 12.8266 7.53509 12.5405 7.32401 12.3295C7.11293 12.1185 6.82664 12 6.52813 12Z" fill="white"/>
<path d="M14.3319 7.875C14.3319 6.75 13.2198 6 12.3509 6C11.7461 6 11.6989 6.459 11.6058 7.365L11.6043 7.3793C11.5634 7.77407 11.5137 8.25228 11.4055 8.8125C11.1158 10.314 10.1149 12.2325 9.15739 12.8062V17.25C9.15439 18.9375 9.71716 19.5 12.1558 19.5H14.9869C16.6183 19.5 17.0145 18.4272 17.1618 18.0281L17.1622 18.027L17.172 18C17.2575 17.7705 17.4406 17.5898 17.6507 17.385L17.657 17.3788C17.8881 17.1508 18.1507 16.8917 18.3463 16.5C18.5797 16.0328 18.5489 15.6172 18.5211 15.2475C18.5039 15.0232 18.4881 14.8162 18.5339 14.625C18.5819 14.4225 18.6435 14.2688 18.7027 14.1217C18.81 13.8548 18.9091 13.6073 18.9091 13.125C18.9091 12 18.3478 11.2515 17.172 11.2515H14.0317C14.0317 11.2515 14.3319 9 14.3319 7.875ZM6.52813 12C6.22962 12 5.94333 12.1185 5.73225 12.3295C5.52117 12.5405 5.40259 12.8266 5.40259 13.125V18.375C5.40259 18.6734 5.52117 18.9595 5.73225 19.1705C5.94333 19.3815 6.22962 19.5 6.52813 19.5C6.82664 19.5 7.11293 19.3815 7.32401 19.1705C7.53509 18.9595 7.65367 18.6734 7.65367 18.375V13.125C7.65367 12.8266 7.53509 12.5405 7.32401 12.3295C7.11293 12.1185 6.82664 12 6.52813 12Z" stroke="black"/>
</svg>
