<svg width="27" height="26" viewBox="0 0 27 26" fill="none" xmlns="http://www.w3.org/2000/svg">
<path d="M12.5274 3.45414L12.5273 3.45473L12.524 3.48499C12.4445 4.20249 12.3462 5.0916 12.1315 6.13349L12.5274 3.45414ZM12.5274 3.45414C12.573 3.03774 12.611 2.69239 12.6603 2.39966C12.71 2.10501 12.7662 1.89757 12.8344 1.75036C12.8984 1.61216 12.9647 1.54462 13.0342 1.50362C13.1095 1.45916 13.2387 1.41675 13.4754 1.41675C14.1958 1.41675 15.0482 1.71364 15.7168 2.24588C16.3801 2.77385 16.8172 3.49386 16.8172 4.32743C16.8172 5.31896 16.675 6.82867 16.5293 8.10932C16.457 8.74561 16.3846 9.31855 16.3303 9.73244C16.3031 9.93932 16.2805 10.1063 16.2647 10.2214L16.2464 10.3537L16.2416 10.3878L16.2404 10.3963L16.2401 10.3984L16.2401 10.3989L16.24 10.399L16.7351 10.4694M12.5274 3.45414L16.7351 10.4694M16.7351 10.4694L16.24 10.399L16.159 10.9694H16.7351H22.8252C23.8641 10.9694 24.5595 11.2767 24.9994 11.7474C25.4447 12.2238 25.694 12.9381 25.694 13.8773C25.694 14.6539 25.5325 15.0309 25.3353 15.4911L25.3345 15.493C25.3345 15.4931 25.3344 15.4931 25.3344 15.4932C25.2188 15.7621 25.0854 16.0731 24.9818 16.4829M16.7351 10.4694L7.78194 21.3808M7.78194 21.3808V21.3818C7.7791 22.881 8.04973 23.6865 8.71136 24.1766C9.42871 24.708 10.7272 24.9737 13.097 24.9737H18.5876C20.0573 24.9737 20.9152 24.5244 21.437 24.0394C21.9705 23.5434 22.2004 22.9682 22.3403 22.6128C22.3406 22.6122 22.3408 22.6116 22.341 22.611L22.3586 22.5654L22.3605 22.5604L22.3605 22.5605C22.5718 22.0288 23.0091 21.6294 23.3891 21.2822L23.414 21.2594C23.4144 21.2591 23.4147 21.2588 23.415 21.2585C23.869 20.8384 24.3233 20.4165 24.6612 19.7816L24.6613 19.7816C25.0392 19.0718 24.997 18.4489 24.9433 17.7787C24.9433 17.7785 24.9433 17.7783 24.9433 17.7781L24.9405 17.7446C24.9091 17.3634 24.872 16.9136 24.9818 16.4829M7.78194 21.3808V13.5771M7.78194 21.3808V13.5771M24.9818 16.4829C24.9817 16.483 24.9817 16.4832 24.9817 16.4833L25.4664 16.6059L24.9819 16.4823C24.9819 16.4825 24.9818 16.4827 24.9818 16.4829ZM7.78194 13.5771C8.7345 12.945 9.6421 11.8084 10.379 10.5508C11.1896 9.16714 11.8379 7.56097 12.1315 6.13365L7.78194 13.5771ZM0.981308 12.7951C1.29479 12.5012 1.72648 12.3309 2.18284 12.3309C2.63919 12.3309 3.07088 12.5012 3.38436 12.7951C3.69675 13.0879 3.86567 13.478 3.86567 13.8773V23.4272C3.86567 23.8266 3.69676 24.2166 3.38436 24.5095C3.07088 24.8034 2.63919 24.9737 2.18284 24.9737C1.72648 24.9737 1.29479 24.8034 0.981308 24.5095C0.668916 24.2166 0.5 23.8266 0.5 23.4272V13.8773C0.5 13.478 0.668917 13.0879 0.981308 12.7951Z" fill="white" stroke="black"/>
</svg>
