<svg width="23" height="23" viewBox="0 0 23 23" fill="none" xmlns="http://www.w3.org/2000/svg">
<path fill-rule="evenodd" clip-rule="evenodd" d="M1 11.4997C0.99982 15.4191 3.18268 19.0123 6.66115 20.8185C10.1397 22.6248 14.3346 22.3433 17.5405 20.0885L22 20.4995V11.4997C22 5.7009 17.299 1 11.5 1C5.70102 1 1 5.7009 1 11.4997Z" stroke="black" stroke-width="2" stroke-linecap="round" stroke-linejoin="round"/>
<path d="M6.5 14.8333C6.5 14.6919 6.53769 14.5665 6.6 14.4637V15.203C6.53769 15.1002 6.5 14.9748 6.5 14.8333ZM7.6 15.5V14.1667H12.4667V15.5H7.6ZM13.5667 14.8333C13.5667 14.9748 13.529 15.1002 13.4667 15.2029V14.4637C13.529 14.5665 13.5667 14.6919 13.5667 14.8333ZM6.5 10.1667C6.5 10.0252 6.53769 9.89984 6.6 9.79705V10.5363C6.53769 10.4335 6.5 10.3081 6.5 10.1667ZM7.6 9.5H15.4V10.8333H7.6V9.5ZM16.5 10.1667C16.5 10.3081 16.4623 10.4335 16.4 10.5363V9.79705C16.4623 9.89984 16.5 10.0252 16.5 10.1667Z" fill="black" stroke="black"/>
</svg>
